<?xml version="1.0" encoding="UTF-8"?><svg id="Layer_1" xmlns="http://www.w3.org/2000/svg" viewBox="0 0 429 59.95"><path d="M325.29,2.93h14.26c8.61,0,15,6.61,15,14.83s-6.39,14.88-15.05,14.88h-6.44v11.92h-7.75V2.93ZM333.05,10.11v15.34h5.93c4.56,0,7.75-3.42,7.75-7.7s-3.19-7.64-7.75-7.64h-5.93Z"/><path d="M356.59,27.91c0-11.06,8.1-17.39,16.54-17.39,4.39,0,8.27,1.77,10.72,4.67v-3.99h7.7v33.36h-7.7v-4.33c-2.45,3.14-6.44,5.02-10.83,5.02-8.04,0-16.42-6.39-16.42-17.33ZM384.25,27.79c0-5.7-4.22-10.26-9.98-10.26s-10.09,4.51-10.09,10.26,4.39,10.38,10.09,10.38,9.98-4.62,9.98-10.38Z"/><path d="M408.3,42.9l-13.69-31.7h8.21l9.29,22.47,8.78-22.47h8.1l-19.9,48.75h-7.81l7.01-17.05Z"/><polygon points="249.51 1.38 250.09 35.27 249.85 35.27 239.93 1.38 223.9 1.38 223.9 44.11 234.52 44.11 233.93 9.05 234.16 9.05 244.82 44.11 260.2 44.11 260.2 1.38 249.51 1.38"/><polygon points="46.23 1.38 38.23 44.56 49.9 44.56 55.8 5.38 56.05 5.37 61.8 44.56 73.4 44.56 65.44 1.38 46.23 1.38"/><polygon points="111.48 1.38 106.15 34.39 105.91 34.39 100.59 1.38 82.98 1.38 82.02 44.56 92.83 44.56 93.1 5.74 93.34 5.74 100.55 44.56 111.51 44.56 118.73 5.74 118.97 5.74 119.24 44.56 130.04 44.56 129.08 1.38 111.48 1.38"/><path d="M20.05,32.37c.42,1.04.29,2.38.09,3.19-.35,1.44-1.33,2.91-4.21,2.91-2.7,0-4.34-1.56-4.34-3.92v-4.19H0v3.33c0,9.63,7.58,12.54,15.69,12.54s14.24-2.66,15.26-9.87c.53-3.73.14-6.17-.05-7.08-1.82-9.04-18.21-11.74-19.43-16.8-.21-.88-.16-1.79-.05-2.27.31-1.39,1.24-2.9,3.94-2.9,2.53,0,4.01,1.56,4.01,3.91v2.68h10.78v-3.04C30.17,1.47,21.72,0,15.61,0,7.93,0,1.66,2.54.51,9.59c-.31,1.93-.36,3.65.1,5.82,1.87,8.83,17.22,11.38,19.44,16.97"/><path d="M160.45,32.29c.41,1.04.28,2.36.08,3.16-.35,1.42-1.31,2.87-4.16,2.87-2.68,0-4.3-1.54-4.3-3.88v-4.14h-11.47v3.3c0,9.54,7.5,12.41,15.54,12.41s14.09-2.64,15.11-9.77c.52-3.69.14-6.1-.05-7.01-1.81-8.95-18.03-11.62-19.23-16.63-.21-.86-.16-1.76-.05-2.24.31-1.37,1.24-2.87,3.9-2.87,2.51,0,3.98,1.54,3.98,3.87v2.64h10.67v-3.01c0-9.31-8.37-10.77-14.42-10.77-7.59,0-13.81,2.51-14.94,9.49-.31,1.91-.36,3.61.1,5.76,1.85,8.74,17.04,11.27,19.25,16.8"/><path d="M196.7,38.09c3,0,3.93-2.07,4.14-3.13.09-.47.11-1.09.1-1.65V1.37h10.93v30.96c.01.8-.07,2.42-.11,2.84-.75,8.06-7.12,10.67-15.06,10.67s-14.31-2.61-15.07-10.67c-.04-.42-.12-2.05-.1-2.84V1.37h10.92v31.95c-.01.55.01,1.18.1,1.65.21,1.06,1.14,3.13,4.14,3.13"/><path d="M286.76,37.64c3.13,0,4.22-1.98,4.41-3.13.09-.49.11-1.09.1-1.64v-6.27h-4.43v-6.3h15.3v11.58c0,.81-.02,1.41-.16,2.84-.71,7.87-7.53,10.67-15.19,10.67s-14.47-2.81-15.19-10.67c-.12-1.44-.15-2.03-.15-2.84V13.71c0-.77.1-2.12.18-2.84.96-8.07,7.5-10.67,15.16-10.67s14.36,2.57,15.16,10.67c.14,1.38.09,2.84.1,2.84v1.44h-10.89v-2.42s0-1.02-.14-1.65c-.2-.95-1.02-3.13-4.32-3.13s-4.06,2.07-4.3,3.13c-.12.57-.17,1.34-.17,2.04v19.74c0,.55.02,1.15.1,1.64.2,1.15,1.29,3.13,4.42,3.13"/></svg>