<?xml version="1.0" encoding="UTF-8"?><svg id="Layer_1" xmlns="http://www.w3.org/2000/svg" viewBox="0 0 500 202.7"><defs><style>.cls-1{fill:#313575;}.cls-1,.cls-2,.cls-3,.cls-4{stroke-width:0px;}.cls-2{fill:#636566;}.cls-3{fill:#f15a56;}.cls-4{fill:#afadd6;}</style></defs><path class="cls-1" d="M116.87,110.92c8.16,0,15.97,0,23.79,0,2.28,0,4.55.03,6.83-.02.79-.02,1.08.24,1.07,1.04-.03,2.83-.04,5.65,0,8.48.02.89-.29,1.14-1.15,1.11-1.72-.06-3.44-.02-5.16-.02-13.6,0-27.2-.03-40.81.04-1.52,0-1.94-.42-1.75-1.83.1-.76.14-1.57,0-2.32-.64-3.47,1.14-5.9,3.26-8.35,3.62-4.18,7.03-8.54,10.56-12.79,3.03-3.65,6.13-7.24,9.19-10.86,2.21-2.62,4.4-5.26,6.59-7.9.17-.2.48-.35.37-.68-.15-.43-.55-.27-.85-.27-2.22-.01-4.44,0-6.66,0-6.77,0-13.55-.04-20.32.03-1.29.01-1.59-.36-1.54-1.58.09-2.6.06-5.21.01-7.82-.02-.87.12-1.26,1.15-1.26,14.93.03,29.87.03,44.8,0,.84,0,1.19.19,1.13,1.09-.08,1.21-.18,2.46.01,3.65.43,2.71-.82,4.64-2.48,6.58-3.76,4.38-7.36,8.88-11.06,13.31-2.93,3.52-5.91,6.99-8.84,10.51-2.67,3.19-5.31,6.41-8.14,9.83Z"/><path class="cls-4" d="M293.29,93.7c0-8.7.03-17.39-.03-26.09,0-1.29.32-1.7,1.66-1.69,7.93.07,15.87-.13,23.8.1,6.05.17,11.7,1.93,16.1,6.34,4.41,4.41,5.68,10.01,4.98,15.99-1.31,11.32-10.02,15.88-18.77,16.89-5.25.61-10.52.2-15.78.27-1.33.02-1.69.4-1.66,1.69.08,4.21-.01,8.42.05,12.63.02,1.24-.23,1.79-1.63,1.72-2.38-.12-4.77-.1-7.15,0-1.24.05-1.6-.33-1.6-1.58.05-8.75.03-17.5.03-26.26ZM303.62,85.79c0,3.21.03,6.43-.02,9.64-.02,1.04.23,1.5,1.38,1.46,4.71-.18,9.41.17,14.12-.3,7.43-.75,11.74-6.52,10.06-13.77-.3-1.28-.77-2.5-1.66-3.58-2.52-3.07-5.88-4.23-9.67-4.31-4.27-.1-8.55,0-12.82-.06-1.11-.02-1.43.37-1.41,1.44.06,3.16.02,6.32.02,9.48Z"/><path class="cls-1" d="M180.68,103.55c-4.88,0-9.77.06-14.65-.03-1.54-.03-1.47.44-.97,1.58,2.09,4.85,6,6.81,11.03,7.11,3.96.23,7.46-.98,10.49-3.44.82-.67,1.24-.64,1.89.08,1.7,1.89,3.44,3.74,5.18,5.59.6.64.51,1.08-.11,1.71-2.98,3.01-6.66,4.84-10.71,5.56-4.95.89-9.98.92-14.91-.52-5.39-1.58-9.7-4.63-12.75-9.36-1.97-3.05-2.92-6.41-3.11-10.05-.28-5.3.69-10.21,3.77-14.63,3.32-4.76,7.9-7.42,13.56-8.59,5.46-1.13,10.75-.65,15.78,1.51,6.22,2.69,9.95,7.62,11.48,14.2.66,2.84.92,5.7.38,8.62-.2,1.07-.89.64-1.37.65-4.99.03-9.99.02-14.98.02ZM174.79,96.28c2.77,0,5.54.03,8.31,0,2.68-.04,2.62.6,1.67-2.42-1.3-4.14-4.84-6.06-9.89-6.33-5.27-.29-9.22,3.66-10.23,7.61-.27,1.05-.13,1.18.84,1.16,3.1-.04,6.21-.02,9.31-.02Z"/><path class="cls-1" d="M259.41,77.93c13.44.09,22.87,9.64,22.83,22.4-.04,12.82-10.39,22.18-22.46,22.1-12.3-.08-22.24-9.66-22.07-22.73.15-11.9,9.21-21.45,21.7-21.77ZM260.08,89.91c-5.02-.77-10.72,4.59-10.47,10.65.21,5.04,4.97,9.96,10.03,9.97,6.6,0,10.72-4.4,10.65-11.62-.04-4.13-4.17-9.36-10.22-9Z"/><path class="cls-4" d="M374.91,116.98c-2.75,3.24-6.04,4.58-9.69,5-5.4.62-10.61.18-15.14-3.34-6.32-4.91-5.98-15.6,1.52-19.6,3.2-1.71,6.68-2.33,10.24-2.43,4.15-.11,8.31-.03,12.51-.03-.09-.54-.23-.97-.22-1.39.13-4.06-1.84-6.61-5.82-7.66-5.45-1.44-10.5-.3-15.37,2.21-.2.1-.37.25-.55.38-1.18.85-1.88.63-2.48-.79-.67-1.57-1.63-3.01-2.51-4.48-.41-.69-.4-1.13.34-1.62,4.28-2.77,8.92-4.18,14.06-4.3,2.01-.05,4-.13,6.02-.08,4.86.13,9.12,1.56,12.53,5.04,2.32,2.36,3.58,5.32,3.86,8.62.78,9.23.13,18.49.36,27.73.03,1.07-.4,1.31-1.37,1.29-2.33-.05-4.66-.06-6.99,0-1.02.03-1.41-.31-1.33-1.33.07-.91.01-1.83.01-3.22ZM363.4,114.86c.5,0,.89,0,1.28,0,6.2-.08,10.28-4.42,9.9-10.5-.04-.58,0-1.16-.82-1.13-4.54.15-9.11-.46-13.61.39-4.42.84-6.01,5.53-3.08,8.94,1.68,1.95,3.96,2.47,6.33,2.31Z"/><path class="cls-4" d="M413.29,110.13c.97-2.22,1.82-4.12,2.63-6.02,1.76-4.12,3.71-8.17,5.18-12.39,1.32-3.79,3.38-7.26,4.56-11.1.3-.98,1.03-1.81,2.47-1.73,2.59.15,5.2.04,7.99.04-1.46,3.76-2.97,7.29-4.62,10.79-1.19,2.51-2.11,5.21-3.22,7.79-3.88,8.96-7.8,17.9-11.65,26.87-1.05,2.45-2.17,4.84-3.75,7-1.74,2.38-4.23,3.58-6.78,4.91-2.44,1.27-4.86,1.12-7.36,1.2-3.29.1-6.1-1.24-8.86-2.8-1.18-.66-1.39-1.33-.65-2.49.97-1.54,1.87-3.14,2.67-4.78.51-1.04.98-.89,1.76-.36,2.51,1.72,5.17,2.5,8.3,1.84,2.23-.47,4.86-4.08,5.35-6.07.66-2.64-.53-4.77-1.74-6.66-1.36-2.14-1.7-4.58-2.8-6.78-1.76-3.5-3.05-7.23-4.73-10.78-2.88-6.11-5.19-12.46-8.08-18.57-.38-.8-.64-1.26.74-1.17,2.54.17,5.1.13,7.65.03,1.22-.04,1.8.48,2.23,1.49,3.77,8.91,7.56,17.82,11.35,26.72.38.9.8,1.77,1.36,3.02Z"/><path class="cls-1" d="M217.61,83.86c2.95-3.79,6.77-4.99,10.88-5.59.97-.14,1.95-.21,2.92-.34.74-.1.94.22.93.93-.03,3.16-.05,6.32,0,9.47.02,1.59-1.09,1.33-1.95,1.21-6.9-.91-11.56,3.3-12.06,8.82-.62,6.95-.11,13.91-.26,20.87-.05,2.27,0,2.27-2.26,2.27-2.94,0-5.88-.03-8.82.02-.92.01-1.35-.08-1.35-1.21.04-13.52.04-27.03,0-40.55,0-.94.26-1.21,1.2-1.19,3.22.06,6.44.05,9.65,0,.86-.01,1.18.22,1.13,1.11-.07,1.26-.02,2.52-.02,4.16Z"/><path class="cls-3" d="M86.75,83.91c-.7-9.14-8.74-17.64-19.32-18.33-12.31-.8-22.62,9.22-22.03,20.65-.72,10.58,9.98,21.14,20.38,20.71,5.82-.24,10.82-1.97,14.98-5.99,4.83-4.67,6.48-10.52,5.98-17.05ZM75.73,86.03c.15,6.31-5.17,9.97-10.22,9.91-4.28-.05-9.7-4.86-9.15-10.6.42-4.42,4.26-8.87,9.83-8.73,6.05.15,9.94,4.97,9.54,9.41Z"/><path class="cls-2" d="M109.21,152.74v1.34h-8.99v-1.04l6.76-8.37h-6.65v-1.34h8.68v1.04l-6.73,8.37h6.93Z"/><path class="cls-2" d="M121.15,152.74v1.34h-7.81v-10.76h7.59v1.34h-6.05v3.3h5.39v1.31h-5.39v3.47h6.27Z"/><path class="cls-2" d="M132.9,154.08l-2.32-3.3c-.22.02-.45.03-.68.03h-2.66v3.27h-1.54v-10.76h4.19c2.8,0,4.49,1.41,4.49,3.75,0,1.66-.86,2.86-2.37,3.4l2.55,3.61h-1.67ZM132.85,147.07c0-1.54-1.03-2.41-3-2.41h-2.61v4.84h2.61c1.97,0,3-.89,3-2.43Z"/><path class="cls-2" d="M138.07,148.7c0-3.15,2.43-5.5,5.73-5.5s5.7,2.34,5.7,5.5-2.43,5.5-5.7,5.5-5.73-2.35-5.73-5.5ZM147.96,148.7c0-2.38-1.78-4.13-4.16-4.13s-4.19,1.75-4.19,4.13,1.78,4.13,4.19,4.13,4.16-1.75,4.16-4.13Z"/><path class="cls-2" d="M161.66,144.66v3.75h5.39v1.32h-5.39v4.35h-1.54v-10.76h7.59v1.34h-6.05Z"/><path class="cls-2" d="M179.76,152.74v1.34h-7.81v-10.76h7.59v1.34h-6.05v3.3h5.39v1.31h-5.39v3.47h6.27Z"/><path class="cls-2" d="M192.12,152.74v1.34h-7.81v-10.76h7.59v1.34h-6.05v3.3h5.39v1.31h-5.39v3.47h6.27Z"/><path class="cls-2" d="M195.69,152.85l.57-1.2c.8.72,2.17,1.24,3.55,1.24,1.86,0,2.66-.72,2.66-1.66,0-2.63-6.52-.97-6.52-4.96,0-1.66,1.29-3.07,4.12-3.07,1.26,0,2.57.34,3.46.95l-.51,1.23c-.94-.6-2-.88-2.95-.88-1.83,0-2.61.77-2.61,1.71,0,2.63,6.52.98,6.52,4.93,0,1.64-1.32,3.06-4.16,3.06-1.64,0-3.26-.55-4.12-1.35Z"/><path class="cls-2" d="M207.69,153.11c0-.62.48-1.04,1.04-1.04s1.01.43,1.01,1.04-.46,1.06-1.01,1.06-1.04-.45-1.04-1.06Z"/><path class="cls-2" d="M228.4,152.74v1.34h-8.99v-1.04l6.76-8.37h-6.65v-1.34h8.68v1.04l-6.73,8.37h6.93Z"/><path class="cls-2" d="M240.33,152.74v1.34h-7.81v-10.76h7.59v1.34h-6.05v3.3h5.39v1.31h-5.39v3.47h6.27Z"/><path class="cls-2" d="M252.08,154.08l-2.32-3.3c-.22.02-.45.03-.68.03h-2.66v3.27h-1.54v-10.76h4.19c2.8,0,4.49,1.41,4.49,3.75,0,1.66-.86,2.86-2.37,3.4l2.55,3.61h-1.67ZM252.03,147.07c0-1.54-1.03-2.41-3-2.41h-2.61v4.84h2.61c1.97,0,3-.89,3-2.43Z"/><path class="cls-2" d="M257.25,148.7c0-3.15,2.43-5.5,5.73-5.5s5.7,2.34,5.7,5.5-2.43,5.5-5.7,5.5-5.73-2.35-5.73-5.5ZM267.15,148.7c0-2.38-1.78-4.13-4.16-4.13s-4.19,1.75-4.19,4.13,1.78,4.13,4.19,4.13,4.16-1.75,4.16-4.13Z"/><path class="cls-2" d="M279.31,143.32h1.54v10.76h-1.54v-10.76Z"/><path class="cls-2" d="M295.39,143.32v10.76h-1.26l-6.45-8.02v8.02h-1.54v-10.76h1.26l6.45,8.02v-8.02h1.54Z"/><path class="cls-2" d="M302.82,144.66h-3.69v-1.34h8.9v1.34h-3.69v9.42h-1.52v-9.42Z"/><path class="cls-2" d="M319.58,152.74v1.34h-7.81v-10.76h7.59v1.34h-6.05v3.3h5.39v1.31h-5.39v3.47h6.27Z"/><path class="cls-2" d="M331.33,154.08l-2.32-3.3c-.22.02-.45.03-.68.03h-2.66v3.27h-1.54v-10.76h4.19c2.8,0,4.49,1.41,4.49,3.75,0,1.66-.86,2.86-2.37,3.4l2.55,3.61h-1.67ZM331.29,147.07c0-1.54-1.03-2.41-3-2.41h-2.61v4.84h2.61c1.97,0,3-.89,3-2.43Z"/><path class="cls-2" d="M345.19,152.74v1.34h-7.81v-10.76h7.59v1.34h-6.05v3.3h5.39v1.31h-5.39v3.47h6.27Z"/><path class="cls-2" d="M348.76,152.85l.57-1.2c.8.72,2.17,1.24,3.55,1.24,1.86,0,2.66-.72,2.66-1.66,0-2.63-6.52-.97-6.52-4.96,0-1.66,1.29-3.07,4.12-3.07,1.26,0,2.57.34,3.46.95l-.51,1.23c-.94-.6-2-.88-2.95-.88-1.83,0-2.61.77-2.61,1.71,0,2.63,6.52.98,6.52,4.93,0,1.64-1.32,3.06-4.16,3.06-1.64,0-3.26-.55-4.12-1.35Z"/><path class="cls-2" d="M363.34,144.66h-3.69v-1.34h8.9v1.34h-3.69v9.42h-1.52v-9.42Z"/><path class="cls-2" d="M370.89,153.11c0-.62.48-1.04,1.04-1.04s1.01.43,1.01,1.04-.46,1.06-1.01,1.06-1.04-.45-1.04-1.06Z"/></svg>